<svg width="42" height="34" viewBox="0 0 42 34" fill="none" xmlns="http://www.w3.org/2000/svg">
<path d="M21.738 14.2099V26.8904L16.4355 23.8289L16.3966 23.8069L16.3604 23.7862L13.6716 22.2335L13.6147 22.2012L13.5785 22.1792L8.18021 19.0634L8.08704 19.009L5.37885 17.446L5.3051 17.4033V23.8276L5.34262 23.8069L8.05081 25.3713L8.08704 25.392L8.14398 25.4243L10.8328 26.9771L10.869 26.9978L13.5422 28.5414L13.5785 28.5621L13.6341 28.5945L16.1741 30.0618L16.3242 30.1472L16.3604 30.1679L21.738 33.2733V27.0637L32.8696 20.6368L21.738 14.2099Z" fill="#303030"/>
<path d="M19.3106 6.34024L21.9075 7.83861L21.9631 7.87225L24.6157 9.40297L24.6894 9.44567L32.889 14.1789L32.9822 14.2332L35.4847 15.6785V9.55306L41.0485 6.34024V-3.8147e-06L35.4847 3.21282V9.33827L24.6894 3.10542L24.6157 3.06272L21.9631 1.53201L21.9075 1.49836L19.3106 -3.8147e-06V6.20955L16.473 7.84896L16.416 7.88131L8.1802 12.6365L10.8897 14.2008L10.9453 14.2332L13.6716 15.8066L13.7467 15.8506L16.3798 17.371L16.4368 17.4033L19.1618 18.9767L19.3106 19.0634V6.34024Z" fill="#303030"/>
<path d="M2.65255 25.3596L2.59691 25.392L2.56068 25.4127L0 26.8903V33.2733L2.59691 31.7749L2.63314 31.7529L2.65255 31.7426L2.69007 31.7206L5.3051 30.2106V23.8276L5.30381 23.8289L2.65255 25.3596Z" fill="#303030"/>
</svg>
